<svg xmlns="http://www.w3.org/2000/svg" version="1.1" width="600px" height="600px" viewBox="0 0 200 200" style="overflow:hidden!important;"><g id="svga-group-wrapper"><g id="svga-group-backs-single"><path id="SvgjsPath12851" d="M0 0h200v200H0V0z" fill="#ecf0f1" stroke-width="none" opacity="1"></path></g><g id="svga-group-humanwrap-move" transform="matrix(1,0,0,1,0,0)"><g id="svga-group-humanwrap"><g id="svga-group-hair-back-move" transform="matrix(1,0,0,1,0,0)"><g id="svga-group-hair-back"></g></g><g id="svga-group-humanbody-back"><path id="SvgjsPath12788" d="M166.5 181.1c-10.9-6.6-27.6-8.4-35-12.1-4.9-2.5-9.1-4.7-8.9-17.8s1.9-42.4 1.9-42.4H75.4s1.6 29.4 1.9 42.4-4.2 15.6-8.9 17.8c-7.4 3.5-24.1 5.4-35 12.1-10.8 6.6-10 18.9-10 18.9v19.7h153.3V200c-.1 0 .7-12.3-10.2-18.9z" fill="#f0c7b1" stroke-width="none" opacity="1"></path></g><g id="svga-group-chinshadow-single"><path id="SvgjsPath12784" d="M124.5 108.9H75.4c.1 1.8 1.6 29.7 1.9 42.3 0 1.4 0 2.7-.1 3.9 1.7 2.2 3.4 4.2 5.1 5.9 5.5 6.1 8.4 6.5 17.7 6.5s12.2-.4 17.7-6.5c1.6-1.7 3.3-3.7 5-5.9-.1-1.2-.1-2.5-.1-3.9.2-12.7 1.8-40.5 1.9-42.3z" fill="#d19271" stroke-width="none" opacity="0.65"></path></g><g id="svga-group-humanbody-front"><path id="SvgjsPath12789" d="M78.7 156.8c.5 4.8 1.7 9.4 3.1 13.9.8 2.3 1.6 4.6 2.6 6.9.8 2 1.7 4.2 3.1 5.9.3.4 1 0 .9-.5-.5-2.2-1.6-4.3-2.4-6.4-.9-2.2-1.7-4.4-2.5-6.6-1.5-4.4-2.8-8.9-4.1-13.3-.2-.4-.8-.3-.7.1zm41.3-1c-1.3 8.2-3.9 16.1-5.4 24.2-.1.4.4.5.6.2 3.1-7.7 4.1-16.1 5.1-24.3-.1-.2-.3-.2-.3-.1zm-25.8 11.9c-.9 3.6 1.9 8.6 6.2 7.6.5-.1.4-.8 0-1-1.4-.5-2.9-.9-3.9-2.1-1.1-1.2-1.5-2.9-1.4-4.5 0-.4-.8-.5-.9 0z" fill="#d19271" stroke-width="none" opacity="1"></path><path id="SvgjsPath12790" d="M177.3 219.7c-.1-6.6-.3-13.1-.3-19.7l-.3-.3c.1 0 .1 0 .2.1s.1.2.1.1v-1.4c0-.5-.1-.9-.1-1.4-.1-.9-.3-1.9-.5-2.8-.5-1.8-1.1-3.6-2-5.3-1.7-3.4-4.4-6.2-7.7-8.1-3.6-2.2-7.6-3.8-11.6-5.1-4-1.3-8.1-2.4-12.1-3.5-4-1.2-8.1-2.2-11.8-4.2-1.9-1-3.6-2.1-4.8-3.6-1.2-1.6-1.9-3.5-2.3-5.5-.8-4-.4-8.2-.3-12.4l.7-12.6 1.5-25.2.1-1.4h-1.4c-8.2 0-16.4 0-24.6.1l-24.6.3h-.9l.1.9c.8 11.9 1.6 23.8 2.1 35.7.1 3 .3 6 .2 8.9-.1 2.9-.4 5.9-1.6 8.6-.6 1.3-1.4 2.5-2.4 3.5s-2.3 1.8-3.6 2.4c-2.6 1.3-5.4 2.2-8.3 3-5.8 1.5-11.6 2.8-17.3 4.7-2.8.9-5.7 2-8.4 3.4-1.3.7-2.7 1.4-4 2.4-1.3.9-2.4 1.9-3.5 3.1-2.1 2.3-3.6 5.2-4.5 8.1-.5 1.5-.8 3-1 4.6-.1.8-.1 1.6-.1 2.4v2.3l-.2 17.9v1.3h1.4l38.3.2c12.8.1 25.5.1 38.3 0 12.8-.1 25.6-.1 38.3-.3 12.8-.2 25.6-.5 38.3-.7h.6v-.5zm-77.2-1.6H61.8l-37 .2-.1-16.6v-2.2c0-.7 0-1.4.1-2.1.1-1.4.4-2.8.8-4.2.8-2.7 2.1-5.3 3.9-7.5.9-1.1 2-2.1 3.1-2.9 1.1-.9 2.4-1.6 3.7-2.3 2.6-1.4 5.3-2.5 8.1-3.5 5.6-2 11.4-3.4 17.1-5.1 2.9-.8 5.8-1.7 8.5-3.1 1.3-.7 2.7-1.5 3.8-2.6 1.1-1.1 2-2.4 2.6-3.9 1.2-2.9 1.5-5.9 1.6-8.9 0-3-.1-6-.2-9l-1.3-34.8 23.5.4c7.7.1 15.4.1 23.1.1-.4 7.9-.8 15.9-1.1 23.8-.2 4.2-.2 8.4-.3 12.6 0 4.2-.2 8.5.8 12.8.5 2.1 1.3 4.2 2.8 6 1.4 1.7 3.4 2.9 5.3 3.8 3.9 1.9 8 2.8 12.1 3.8s8.2 2 12.2 3.3c4 1.3 7.9 2.8 11.5 5 3.2 1.9 5.8 4.7 7.5 8 .9 1.6 1.5 3.4 1.9 5.2.2.9.4 1.8.4 2.7.1.5.1.9.1 1.4V200l-.3 19c-12.6-.2-25.1-.5-37.7-.7-12.7-.1-25.5-.1-38.2-.2z" fill="#c27b55" stroke-width="none" opacity="1"></path></g><g id="svga-group-clothes-single"><path id="SvgjsPath12662" d="M100.8 184.4c-1.1-3-8.2-7.8-13.2-10.6s-7-4.9-10-8.8c-1.8-3.6-1-8.9-1-8.9-.1-4.7-.6-9.5-.9-14.7-8.2-1.1-13.1 3.7-14 4.6-6.5 6.3-3.1 8.5-5.7 11.5-9.2 2.1-7.1 14.2-10.7 15-8.7 1.9-21.2 7-24.2 21 0 0-1.6 9.2-1.6 26.7h160.7c0-17.5-1.6-26.7-1.6-26.7-3.2-15.2-17.6-19-26.1-21.4-1.4-.6.2-5.2-2.5-10.5-1.4-2.7-3.9-6.5-9.3-7.8 0 0-1.2-6.6-5.4-9.9-4.2-3.3-11.2-2.5-11.2-2.5s-.3 14.1-.3 16.1c0 3.2-.2 4.9-1.6 6.6s-4.4 3.9-6.9 7.5-10.1 7.5-11.7 9c-1.4 1.4-2.8 3.8-2.8 3.8z" fill="#638e2f" stroke-width="none" opacity="1"></path><path id="SvgjsPath12663" d="M105.6 187.4c-.6.6-1.7 3.4-1.8 5.7s1.8 11.5 2.1 13.4-1 7.4-1 8.5 2.8 2.8 3.1 1.7c.3-1.1 1.2-8.4.2-10.9s-2.2-10.1-2.2-11.6 1.1-5.6 1.6-6.5c0 0 .2-.8-.6-.9-.8-.1-1.4.6-1.4.6z" fill="#d6d6d6" stroke-width="none" opacity="1"></path><path id="SvgjsPath12664" d="m95.6 186.8.1-.2s1.8-1.3 1.9.9c0 0-1.2 2.8-1.2 4.8s2.2 11.9 2.5 14.1-2.7 10.4-3.1 10.5-2.1-.9-2.6-1.3c-.4-.4 2.5-6.9 2.8-9.9.3-2.9-.4-8.7-1.2-12.2-.8-3.5.4-5.9.8-6.6v-.1z" fill="#d6d6d6" stroke-width="none" opacity="1"></path><path id="SvgjsPath12665" d="M181.4 204.3c-.2-2.6-.4-5.2-.7-7.9l-.2-2-.1-1v-.3c0-.1 0-.2-.1-.3l-.1-.5c-.3-1.4-.7-2.7-1.2-4-1.1-2.6-2.6-5-4.4-7.1-1.9-2.1-4.1-3.8-6.5-5.2-4.6-2.7-9.6-4.2-14.5-5.5v-.1c-.1-.4-.1-.9-.1-1.4-.1-1-.1-2-.3-3.1-.3-2.1-1.1-4.2-2.1-6-1-1.8-2.4-3.6-4.1-4.9-1.5-1.2-3.2-2-5-2.6-.4-1.4-.8-2.8-1.4-4.1-.7-1.6-1.6-3.1-2.9-4.4-1.3-1.4-3.4-2.5-5-3-5.1-1.2-8.6-.4-8.6-.4s-1.2 9.6-2.9 22.5c0 0-3.9 4.9-5.3 6.8-.4.4-.7 1-1.1 1.4-.2.2-.3.4-.5.6l-.6.6c-.8.8-1.7 1.5-2.6 2.2-1.8 1.4-3.8 2.7-5.7 4-.5.3-1 .7-1.4 1.1-.5.4-.8.9-1.2 1.3-.4.5-.7.9-1 1.4l-.5.8-.2.4-.1.1-.2-.3-.3-.6c-.2-.4-.5-.7-.8-1l-1.8-1.8c-1.3-1.1-2.6-2.2-4-3.2s-2.8-1.9-4.2-2.8c-1.4-.9-2.9-1.7-4.2-2.7-2.7-2-4.5-4.6-6.6-7.1-1.1-1.3-1.7-3.5-1.9-4.9-.1-1 .6-10.8-.2-17.9 0-.4-.7-.9-5.6-1.1-5 .1-8.8 3.3-10.4 4.9-1.5 1.6-3.1 3.3-3.9 5.6-.4 1.1-.5 2.4-.7 3.4-.1.9-.3 1.4-.7 1.9-1.7.4-3.3 1.3-4.5 2.5-1.4 1.4-2.3 3-2.9 4.7-.7 1.7-1.1 3.4-1.5 4.9-.2.8-.5 1.5-.8 2.1-.1.3-.3.4-.4.5 0 0-.1 0-.1.1l-.6.1c-3.3.8-6.6 1.9-9.8 3.4-3.1 1.6-6 3.6-8.4 6.2-2.4 2.6-4.2 5.7-5.3 9-.3.8-.5 1.7-.7 2.5l-.1.7c0 .1 0 .2-.1.4v.3l-.2 1.3c-.2 1.7-.3 3.4-.5 5-.5 6.7-.6 13.4-.5 20.1 0 .4.1 1.3.5 1.3 13.4-.2 160.9.2 160.9.2.8 0 1.5-.7 1.5-1.5-.1-5-.2-10.3-.6-15.6zm-27.8-33.4zm-28.8-26.1c1 .6 4.7 2.5 6 5.1.1.8.2 1.8 0 2.6s-.6 1.5-1.1 2.3c-2.1 2.6-6.1 6.3-6.5 6.8 5.1-8.8 1.6-16.8 1.6-16.8zm-50.4 17.7c.9 1.4 4 4.3 5 5.5-.4-.3-3.9-3-4.3-3.2-1.2-.8-1.8-1.7-2.7-2.9-1.8-2.2-2.7-5.1-3.4-8-.3-1.4-.6-2.9.3-3.8 2.2-1.5 5.9-2 6.1-2.1.2 2.7-3.2 5.8-3.1 8.5-.1.3-.1.4-.1.7v.8c.1.5.2 1 .3 1.4.3.7 1.4 2.3 1.9 3.1zM48 171.8c.5-.9.8-1.8 1-2.6.5-1.7.8-3.2 1.4-4.7.5-1.5 1.3-2.8 2.3-3.8s2.3-1.7 3.7-2c.2 0 .3-.1.5-.2.1 1.1.2 2.2.4 3.3.3 1.7.7 3.4 1.4 5 .3.9.8 1.6 1.2 2.4.5.7 1 1.5 1.5 2.2 2.3 2.8 5.1 4.8 8.2 6.4 3.1 1.6 6.3 2.8 9.7 3.4-3.1-1.4-6.1-3-8.9-4.8-1.4-.9-2.8-1.8-4-2.9-1.3-1.1-2.5-2.2-3.4-3.4-.5-.6-1-1.3-1.4-1.9-.4-.7-.8-1.4-1.1-2.1-.7-1.4-1.1-3.1-1.6-4.6-.4-1.4-.7-2.9-.9-4.3.1-.2-.8-5.1 4.4-9.9 1.4-1.5 3-2.8 4.6-3.8 4.2-2.4 6.8-1.4 8.1-1.2.1 2 .2 3.1.3 5.1-.3.1-4.2 1-4.5 1.1-.7.3-1.5.5-2.2 1.1-.7.5-1.1 1.5-1.2 2.3-.1.9 0 1.7.1 2.5.4 3.1 1.3 6.3 3.3 8.9 1 1.3 2.3 2.4 3.6 3.2l3.9 2.4c1.3.8 2.6 1.5 3.9 2.2.8.6 1.5 1.2 2.3 1.7 1.4 1 2.9 1.8 4.4 2.6 1.4.8 2.9 1.7 4.3 2.6s2.8 1.9 4.1 2.9c.7.5 1.3 1.1 1.9 1.7.3.3.6.6.8.9.1.2.2.3.3.5l.2.3c.1.1.2.3.3.4 0 0 .1 0 .2-.1v-.1l.1-.1.1-.2.2-.4.5-.7c.3-.5.7-.9 1.1-1.4.4-.4.8-.9 1.2-1.2.4-.3.9-.7 1.4-1 2-1.2 4-2.4 5.9-3.8 1-.7 1.9-1.4 2.8-2.2.2-.2.4-.4.7-.6.2-.2.4-.4.6-.7.4-.5.7-.9 1.1-1.4 1.5-1.7 3.2-3.3 4.9-4.9l2.6-2.4c.7-.7 3.2-2.8 3.6-3.2 1.5-1.3 2.8-2.7 3.8-4.5 1-1.8.9-4 .2-6.1-1.1-2.4-5.6-5-6.9-5.8l-.1-2.5c.2.1 4.4-.9 8.1 1.4 2.5 1.6 4.6 5.3 5.3 6.7.6 1.4 1.1 2.9 1.4 4.4.1.5.5.9 1 1.1.1 0 .1 0 .2.1-.2 2-.6 4-1.4 5.8-.6 1.5-1.3 2.9-2.3 4-1 1.2-2.2 2.3-3.4 3.3-.6.5-1.2 1-1.8 1.6l-1.9 1.5c-1.3 1-2.6 2-3.9 2.9-2.6 1.9-5.3 3.8-7.9 5.8 3.1-1.3 6-2.8 8.8-4.5 2.8-1.7 5.6-3.6 8.1-5.8.6-.6 1.3-1.1 1.8-1.7l.9-.9.8-1c1.1-1.4 1.8-3 2.3-4.7.6-2 .8-4 .7-6.1 1.4.5 2.6 1.1 3.7 2.1 1.4 1.1 2.4 2.6 3.3 4.2.9 1.6 1.5 3.3 1.7 5.1.1.9.2 1.8.2 2.8 0 .5 0 1 .1 1.6 0 .3.1.6.2 1.1.1.2.2.5.4.7l.1.1-1.4 1.4c-.9.8-1.9 1.6-2.8 2.4-1.9 1.6-3.9 3.1-5.9 4.5-2 1.4-4 2.9-6.1 4-1.1.6-2.1 1.1-3.2 1.5-1.1.4-2.3.8-3.5 1.1-2.4.7-4.8 1.3-7.2 1.8-2.4.6-4.8 1.1-7.2 1.5l-3.6.6c-.6.1-1.2.1-1.7.1-.6 0-1.1-.2-1.6-.4l-.2-.1c.3-1.1.6-2.3 1-3.3.1-.2 0-.5-.1-.7s-.4-.3-.7-.3c-.5 0-.9.3-1.2.6.3-.4.8-.6 1.2-.6.2 0 .5.1.6.3.1.2.2.4.1.7-.5 1.2-.8 2.4-1.2 3.7-.3 1.2-.6 2.6-.4 3.9.2 2.6.6 5.1 1.1 7.7.1.6.3 1.3.4 1.9l.3.9c.1.3.2.6.2.9.2 1.2.2 2.5.2 3.8-.1 1.3-.2 2.6-.3 3.8-.1.6-.2 1.3-.3 1.9 0 .1-.1.3-.1.4-.1 0-.4 0-.6-.1-.5-.2-1-.6-1.3-1-.1-.1-.1-.2-.2-.3v-.3c0-.3.1-.6.1-.9.2-1.3.4-2.5.6-3.8.1-.6.2-1.3.2-1.9 0-.6 0-1.4-.1-2l-.8-3.8c-.5-2.5-1.1-5.1-1.4-7.6-.1-.6-.1-1.3-.1-1.9 0-.5.1-.9.2-1.4 0 0 .1-.4.1-.5.2-.6.3-1.2.6-1.9-.2.6-.4 1.2-.6 1.9 0 .1-.1.3-.1.4-1-.6-2.1-.9-3.3-1.1-1.3-.2-2.5-.3-3.8-.5.2-.8.4-1.5.7-2.2 0-.2-.1-.5-.2-.7s-.2-.4-.5-.6c-.5-.2-1 0-1.4.3.4-.2.9-.4 1.3-.2s.5.8.5 1.2c-.5 1.2-1 2.4-1.2 3.8-.1.6-.2 1.4-.1 2 .1.7.2 1.3.3 2 .4 2.6.9 5.2 1.4 7.8l.3 1.9c.1.6.2 1.3.2 1.9-.1 1.2-.4 2.5-.8 3.7-.4 1.2-.8 2.5-1.2 3.7-.2.6-.5 1.2-.7 1.8-.1.1-.1.2-.2.4-.2-.1-.4-.1-.7-.3-.3-.1-.6-.3-.8-.5-.1-.1-.2-.2-.4-.3l-.1-.1c0-.2.1-.5.2-.8l.3-.9 1.3-3.7c.4-1.3.8-2.5 1-3.9.2-1.4.1-2.7 0-4-.2-2.6-.7-5.2-1.2-7.8-.6-1.8-.6-3.9-.1-5.7h.1s0-.1-.1-.1c.2-.6.4-1.2.7-1.8-.3.5-.6 1.1-.8 1.7-.5-.6-.8-1.4-.6-1.9.2-.6.8-1 1.6-.9.7 0 1.4.4 2 .9.3.3.5.6.6 1 .1.3-.1.7-.5 1 .2 0 .5-.1.7-.3s.3-.5.3-.7c0-.5-.2-1-.5-1.4-.6-.8-1.5-1.4-2.5-1.5-.5 0-1.1.1-1.6.4s-.8.8-.8 1.4c-.1 1.1.6 1.8 1.4 2.2-.1.4-.2.7-.3 1.1l-5.5-.7c-2.6-.4-5.2-.6-7.8-1-2.6-.4-5.2-.8-7.7-1.3-1.3-.2-2.5-.5-3.7-.9-1.2-.3-2.4-.9-3.6-1.4-2.4-1-4.7-2.3-6.9-3.5-2.3-1.3-4.5-2.6-6.7-4-1.1-.7-2.2-1.4-3.2-2.2l-1.5-1.2-.6-.6c-.1-1 .1-1.3.3-1.6zm52 47.5-20.1.2-20.1.1c-13.2.1-26.3 0-39.5-.2.1-6.4.4-12.9 1.1-19.3.2-1.6.4-3.3.6-4.9l.2-1.2v-.3c0-.1 0-.2.1-.3l.1-.6c.2-.8.4-1.5.7-2.3 1.1-3 2.8-5.7 5-8s4.9-4.1 7.8-5.5c2.9-1.4 6-2.5 9.1-3.2l.6-.1c.4-.1.7-.2 1-.5.2-.1.3-.2.4-.4.5.8 1.2 1.4 1.9 2.1 1 .9 2 1.8 3 2.6 2.1 1.6 4.2 3.1 6.5 4.6 2.2 1.4 4.5 2.7 6.9 3.9 1.2.6 2.4 1.1 3.8 1.5 1.3.4 2.6.7 3.9 1 5.2 1 10.4 1.6 15.7 1.9 2.2.1 3.4.2 5.5.2-.1 1.2 0 2.5.2 3.7.5 2.6.8 5.2.9 7.8.1 1.3.1 2.6-.1 3.9-.2 1.2-.6 2.5-1 3.7l-1.3 3.7c-.1.3-.2.6-.3 1-.1.3-.2.6-.2 1.1v.3c0 .1.1.2.1.2l.1.1c.1.1.2.1.2.2.1.1.3.2.4.3.3.2.6.4.9.5.3.2.6.3 1.1.4h.4c.2-.1.2-.1.3-.2.1-.1.2-.2.2-.3.1-.2.2-.3.2-.5.3-.6.5-1.2.7-1.9.4-1.2.8-2.5 1.2-3.8.3-1.3.7-2.6.8-4 0-.8-.2-1.4-.3-2-.1-.6-.2-1.3-.4-1.9-.5-2.6-1.1-5.1-1.6-7.7-.1-.6-.2-1.3-.3-1.9-.1-.6-.1-1.3 0-1.9 0-.2.1-.4.1-.6 2.4.1 4.9-.1 7.2.7-.1.5-.2.9-.2 1.4-.1.6 0 1.3.1 1.9.3 2.6.7 5.1 1.1 7.7l.6 3.8c.2 1.2-.1 2.5-.3 3.7l-.7 3.8c-.1.3-.1.6-.1 1 0 .1 0 .5.1.7.1.2.2.4.3.5.5.6 1.1 1 1.7 1.3.3.1.7.3 1.3.2.3-.1.6-.4.7-.6.1-.2.1-.4.1-.5.1-.7.2-1.3.3-2 .2-1.3.2-2.6.3-3.9 0-1.3 0-2.6-.3-3.9-.1-.3-.2-.7-.3-1l-.3-.9c-.2-.6-.4-1.2-.5-1.9-.6-2.5-1.1-5-1.5-7.6-.2-1-.1-2.1.2-3.1.6.3 1.3.5 1.9.6.3.1.7.1 1 .1h1c1.3 0 2.5-.2 3.8-.3 5-.6 9.9-1.6 14.7-2.9 1.2-.4 2.4-.7 3.6-1.2 1.2-.4 2.4-1 3.5-1.7 2.2-1.3 4.2-2.8 6.1-4.4 1.9-1.6 3.8-3.2 5.6-5 .9-.9 1.8-1.8 2.6-2.8.4-.5.8-1 1.2-1.6.2.1.4.3.6.4.1 0 .1.1.2.1 5 1.4 9.9 2.9 14.2 5.5 4.3 2.5 7.7 6.2 9.6 10.7.4 1.1.8 2.3 1.1 3.5l.1.4v.4l.1.9.2 1.9c.3 2.6.5 5.1.7 7.7.3 4.7.5 9.4.5 14.1l-38.6.2c-13.2.2-26.6.4-40 .6zm4.7-30.4c-.3-.4-.4-.8-.4-1.1 0-.4.1-.7.3-1 .4-.5 1.2-.7 1.9-.6.7.1 1.5.5 1.8 1.1.2.3.2.6.1 1s-.4.7-.7 1.1c.4-.1.8-.4 1.1-.9.3-.4.3-1.1.1-1.6-.4-1-1.4-1.6-2.4-1.8-.5-.1-1-.1-1.5.1s-1 .5-1.2 1c-.2.4-.3 1-.2 1.5.3.6.7 1 1.1 1.2zM41 209.2c-.7-2.7-1.6-5.3-2.8-7.8-1.2-2.5-2.7-4.9-4.5-7-1.8-2.1-3.8-4.1-6.2-5.4 1.1.8 2.1 1.8 3 2.8 1 1 1.8 2 2.6 3.1 1.6 2.2 3 4.5 4.2 7 .6 1.2 1.2 2.4 1.6 3.7.5 1.2.9 2.6 1.4 3.8.4 1.3.7 2.6 1.1 3.9.3 1.3.6 2.7.9 4-.1-1.4-.3-2.7-.5-4.1-.2-1.3-.4-2.6-.8-4zm125.6-13.9c-1.8 1.9-3.3 4.1-4.5 6.4-1.2 2.3-2.2 4.8-3 7.3-.4 1.2-.6 2.5-1 3.8l-.6 3.9c.4-1.2.7-2.5 1.1-3.7.4-1.2.8-2.5 1.2-3.7.2-.6.5-1.2.7-1.8s.5-1.2.8-1.8c.5-1.2 1.1-2.3 1.7-3.5 1.2-2.2 2.6-4.4 4.2-6.4.8-1 1.7-1.9 2.6-2.9.9-.9 1.9-1.8 3-2.4-2.4 1.1-4.4 2.9-6.2 4.8z" fill="#446f0f" stroke-width="none" opacity="1"></path></g><g id="svga-group-head" transform="matrix(1,0,0,1,0,0)"><g id="svga-group-ears-left-move" transform="matrix(1,0,0,1,0,0)"><g id="svga-group-ears-left"><path id="SvgjsPath12678" d="M58.8 91.7s-2.6-4.9-5.3-5.7-4.4.7-3.9 6.6 5.2 23.2 10.6 22.2c5.4-1.1.9-19.6-1.4-23.1z" fill="#f0c7b1" stroke-width="none" opacity="1"></path><path id="SvgjsPath12679" d="M59.8 93.6c.3.7.6 1.5.8 2.2.5 1.5 1 3.1 1.4 4.8.4 1.6.7 3.4.9 5.2.1.9.2 1.8.2 2.7 0 .9 0 1.8-.1 2.8-.1.9-.3 1.8-.7 2.5-.3.7-.8 1.2-1.2 1.5-.9.5-1.9.4-2.8-.1-.9-.5-1.8-1.5-2.6-2.7s-1.4-2.5-2-4c-.6-1.4-1.1-3-1.6-4.5s-1-3.1-1.4-4.7-.8-3.3-1.1-5-.5-3.6-.3-5.4c.1-.9.3-1.8.7-2.4s.8-1 1.3-1.2.9-.2 1.4-.1.9.3 1.4.6c.9.6 1.7 1.5 2.5 2.5s1.5 2.2 2.2 3.4c.4.5.7 1.2 1 1.9zm-3.2-5c-.8-.9-1.6-1.6-2.5-1.9-.8-.3-1.7-.4-2.5-.1-.4.2-.7.4-1 .9s-.5 1.1-.6 1.8c-.2 1.4-.2 3.2.1 4.8.2 1.7.5 3.3.9 5 .8 3.2 1.8 6.3 3.1 8.9.6 1.3 1.3 2.5 2 3.5s1.5 1.8 2.3 2.2c.4.2.8.3 1.2.3s.8-.1 1.2-.4c.3-.2.7-.6.9-1.1s.4-1.2.5-1.9c.2-1.4.1-3.1 0-4.8-.1-1.7-.4-3.3-.7-5s-.7-3.3-1.1-4.9c-.4-1.6-1-3.1-1.7-4.3-.6-1-1.3-2.1-2.1-3z" fill="#e1ac8f" stroke-width="none" opacity="1"></path><path id="SvgjsPath12680" d="M52.4 89.6c2.3 1.5 4.4 5.7 5.4 9.9v.1c0 .3-.2.4-.2.1-.4-1.2-.9-1.2-1.5 0-.1.8-.1 1.5.1 2.3.2.7.4 1.4.7 2 .5 1.2 1.2 2.1 1.8 3.1.2.3 0 .7-.2.6-1.4-1.1-3.4-4.7-3-7.8.2-1.5 1-2.3 1.6-1.7-.8-2.1-1.7-4-2.8-5.5-.6-.8-2-2.7-2.7-2.4-1.3.6-.6 4.8-.5 6.6 0 .3-.2.4-.3.1-.7-3.3-.8-9 1.6-7.4z" fill="#d19271" stroke-width="none" opacity="1"></path><path id="SvgjsPath12681" d="M58 108.6c-2.4-.9-4.2-4.8-5.2-9-.6-2.6-1.8-8.6.5-8.5.2 0 .3.5.1.6-2.2 1.1.2 9.2.9 11.1 1 2.6 2.2 4.4 3.8 5.4.1.1 0 .5-.1.4z" fill="#d19271" stroke-width="none" opacity="1"></path></g></g><g id="svga-group-ears-right-move" transform="matrix(1,0,0,1,0,0)"><g id="svga-group-ears-right"><path id="SvgjsPath12682" d="M141.2 91.7s2.6-4.9 5.3-5.7 4.4.7 3.9 6.6-5.2 23.2-10.6 22.2c-5.4-1.1-.9-19.6 1.4-23.1z" fill="#f0c7b1" stroke-width="none" opacity="1"></path><path id="SvgjsPath12683" d="M141.1 91.7c.7-1.2 1.4-2.4 2.2-3.4s1.6-1.9 2.5-2.5c.5-.3.9-.5 1.4-.6s.9-.1 1.4.1.9.5 1.3 1.2c.4.6.6 1.5.7 2.4.2 1.8 0 3.7-.3 5.4-.3 1.7-.7 3.4-1.1 5-.4 1.6-.9 3.2-1.4 4.7s-1 3.1-1.6 4.5-1.3 2.8-2 4c-.8 1.2-1.6 2.2-2.6 2.7-.9.5-1.9.7-2.8.1-.5-.3-.9-.8-1.2-1.5s-.5-1.6-.7-2.5c-.1-.9-.1-1.8-.1-2.8 0-.9.1-1.8.2-2.7.2-1.8.5-3.5.9-5.2s.9-3.2 1.4-4.8c.3-.8.5-1.5.8-2.2.4-.7.7-1.4 1-1.9zm.1.1c-.7 1.2-1.2 2.7-1.7 4.3-.4 1.6-.8 3.2-1.1 4.9-.3 1.7-.5 3.3-.7 5-.1 1.6-.2 3.3 0 4.8.1.7.3 1.4.5 1.9s.6.9.9 1.1c.3.3.8.3 1.2.4.4 0 .8-.1 1.2-.3.8-.4 1.6-1.2 2.3-2.2s1.4-2.2 2-3.5c1.3-2.6 2.3-5.7 3.1-8.9.4-1.6.7-3.3.9-5 .2-1.6.3-3.4.1-4.8-.1-.7-.3-1.3-.6-1.8-.3-.4-.6-.7-1-.9-.8-.3-1.7-.2-2.5.1-.8.4-1.7 1-2.5 1.9-.7.7-1.4 1.8-2.1 3z" fill="#e1ac8f" stroke-width="none" opacity="1"></path><path id="SvgjsPath12684" d="M147.6 89.6c-2.3 1.5-4.4 5.7-5.4 9.9v.1c0 .3.2.4.2.1.4-1.2.9-1.2 1.5 0 .1.8.1 1.5-.1 2.3-.2.7-.4 1.4-.7 2-.5 1.2-1.2 2.1-1.8 3.1-.2.3 0 .7.2.6 1.4-1.1 3.4-4.7 3-7.8-.2-1.5-1-2.3-1.6-1.7.8-2.1 1.7-4 2.8-5.5.6-.8 2-2.7 2.7-2.4 1.3.6.6 4.8.5 6.6 0 .3.2.4.3.1.7-3.3.8-9-1.6-7.4z" fill="#d19271" stroke-width="none" opacity="1"></path><path id="SvgjsPath12685" d="M142 108.6c2.4-.9 4.2-4.8 5.2-9 .6-2.5 1.8-8.5-.5-8.5-.2 0-.3.5-.1.6 2.2 1.1-.2 9.2-.9 11.1-1 2.6-2.2 4.4-3.8 5.4-.1.1 0 .5.1.4z" fill="#d19271" stroke-width="none" opacity="1"></path></g></g><g id="svga-group-faceshape-wrap"><g id="svga-group-faceshape-single"><path id="SvgjsPath12770" d="M143.2 82v-.3c-1.3-29.9-20.7-46.4-43.2-46.4S58.1 51.8 56.9 81.7v.3c.1 9.4-.6 25.5 2 31.6 1.3 3.1 13.8 23.8 23.4 34.2 5.5 6.1 8.4 6.5 17.7 6.5 9.3 0 12.2-.4 17.7-6.5 9.6-10.4 22.1-31.1 23.4-34.2 2.6-6.1 1.9-22.2 2.1-31.6z" fill="#f0c7b1" stroke-width="none" opacity="1"></path><path id="SvgjsPath12771" d="M117.7 147.8c9.6-10.4 22.1-31.1 23.4-34.2 2.6-6.1 1.9-22.2 2.1-31.6v-.3c-1.3-29.9-20.7-46.4-43.2-46.4S58.1 51.8 56.9 81.7v.3c.1 9.4-.6 25.5 2 31.6 1.3 3.1 13.8 23.8 23.4 34.2 5.5 6.1 8.4 6.5 17.7 6.5s12.2-.4 17.7-6.5zm-30.3 1.4c-1.2-.9-2.3-2-3.4-3.2-2.3-2.4-4.4-6-6.5-8.6-4.2-5.3-8.1-10.8-11.9-16.3-.9-1.4-1.9-2.8-2.8-4.2-.5-.7-.9-1.4-1.3-2.1l-.6-1c-.2-.3-.4-.6-.5-1-.6-1.3-.9-2.9-1.2-4.5s-.5-3.3-.7-4.9c-.6-6.7-.7-13.5-.8-20.3 0-6.7 1.1-13.4 3.6-19.7.1-.4.3-.8.4-1.2l.6-1.1 1.1-2.2c.3-.8.8-1.4 1.3-2.2l1.3-2.1 1.5-2c.5-.6 1-1.3 1.6-1.9 1.2-1.2 2.2-2.4 3.5-3.4.6-.5 1.3-1.1 1.9-1.6l2-1.4 1-.7c.3-.2.7-.4 1.1-.6l2.1-1.2c.7-.4 1.5-.6 2.2-1 .8-.3 1.5-.7 2.3-.9 1.6-.5 3.1-1 4.7-1.3 6.3-1.4 12.9-1.5 19.2-.1l2.4.5 2.3.7c1.6.4 3 1.1 4.5 1.7.8.3 1.4.8 2.1 1.1.7.4 1.5.7 2.1 1.2 1.3.9 2.8 1.7 4 2.8 5.1 4.1 9.3 9.5 12 15.6 2.7 6.1 4.1 12.9 4.4 19.6-.1 3.4-.1 6.8-.2 10.2-.1 3.4-.2 6.8-.6 10.2-.3 3.3-.8 6.8-1.8 9.8l-.5 1.1c-.2.3-.4.7-.6 1-.4.7-.9 1.4-1.3 2.1-.9 1.4-1.9 2.8-2.9 4.2-2 2.8-4 5.5-6 8.2-1 1.3-2 2.7-3.1 4-1 1.3-2.1 2.7-3.1 4-2.1 2.6-4.2 6.2-6.5 8.6-2.2 2.5-4.4 4.7-6.9 5.5-2.5.9-5.8.9-9.2.9-3.3 0-6.8.1-9.4-.6-1.1-.2-2.2-.8-3.4-1.7z" fill="#c27b55" stroke-width="none" opacity="1"></path></g></g><g id="svga-group-mouth-single-move" transform="matrix(1,0,0,1,0,0)"><g id="svga-group-mouth-single"><path id="SvgjsPath12875" d="M84.13 121.38s.02 2.5 1.11 4.36c0 0 4.32 4.53 9.9 8.4.19.14 8.24 1.16 10.36.41 0 0 8.36-5.19 10.19-9.12 0 0 .66-1.94.41-3.27 0 0-6.34 1.76-9.33 2.2-2.99.45-10.62 0-14.41-.57-3.8-.57-7.27-1.92-8.23-2.41z" fill="#000000" stroke-width="none" opacity="1" transform="translate(0 2)"></path><path id="SvgjsPath12876" d="M106.75 124.35c-2.99.45-10.62 0-14.41-.57-3.79-.57-7.26-1.92-8.22-2.41 0 0 .02 2.5 1.11 4.36l.19.19c1.51 1.07 3.66 2.31 6.2 2.99 5.05 1.36 15.17 1.9 22.14-1.92.58-.32 1.09-.63 1.57-.95.14-.21.25-.43.34-.64 0 0 .66-1.94.41-3.27.01.02-6.34 1.79-9.33 2.22z" fill="#ffffff" stroke-width="none" opacity="1" transform="translate(0 2)"></path><path id="SvgjsPath12877" d="M116.59 121.88c.16-.2 0-.49-.28-.48-1.71.52-2.76.73-4.08 1.09-1.18.32-9.11 1.01-11.89.99-9.17-.2-13.39-1.67-16.1-2.4-.22-.06-.44.18-.34.34-.21 1.26 1.06 4.43 1.06 4.45 2.41 3.32 6.15 6.2 9.6 8.45 2.45 1.59 9.23 1.33 10.89.76 2.36-.89 4.78-3.17 6.36-4.68 1.46-1.4 3.54-4 4.23-5.1.29-.44.46-.97.57-1.48.13-.52.3-1.38-.02-1.94zm-5.54 8.28c-2.42 2.24-5.67 3.61-5.82 3.62-1.9.17-3.8.26-5.72.19-1.36-.05-4.19-.4-4.31-.48-1.83-.93-3.63-2.15-5.26-3.53-1.59-1.34-3.52-2.92-4.56-4.42-.65-1.11-1.02-2.25-.86-3.72 4.7 2.47 10.68 3.54 15.92 3.58 2.85.02 5.63-.36 8.4-.92 2.13-.43 5.04-.89 7-2.08-.03.32-.02.66-.07.97-.09.56.23 2.27-4.72 6.79z" fill="#da7c87" stroke-width="none" opacity="1" transform="translate(0 2)"></path></g></g><g id="svga-group-eyes-left-move" transform="matrix(1,0,0,1,0,0)"><g id="svga-group-eyes-left"><g id="svga-group-eyesback-left"><path id="SvgjsPath12724" d="M89.9 97.6c0-.1-.5-2.9-2.5-4.8s-5.1-3.6-8.7-2.7c-3.5.9-5.3 2.1-7 4.3-1.6 2.2-1.7 3.4-1.7 3.4s3.4 1.1 7.6 1.1c4.1.1 9.6-.7 10.5-.9.9 0 1.8-.4 1.8-.4z" fill="#ffffff" stroke-width="none" opacity="1"></path></g><g id="svga-group-eyesiriswrapper-left" transform="matrix(1,0,0,1,0,0)"><g id="svga-group-eyesiriscontrol-left" transform="matrix(1,0,0,1,0,0)"><g id="svga-group-eyesiris-left"><path id="SvgjsPath12805" d="M80.1 88.3c2.9 0 5.2 2.3 5.2 5.2s-2.3 5.2-5.2 5.2-5.2-2.3-5.2-5.2 2.3-5.2 5.2-5.2z" fill="#4e60a3" stroke-width="none" opacity="1"></path><path id="SvgjsPath12806" d="M80.1 88.6c2.7 0 4.9 2.2 4.9 4.9s-2.2 4.9-4.9 4.9-4.9-2.2-4.9-4.9 2.1-4.9 4.9-4.9m0-.5c-3 0-5.5 2.4-5.5 5.5 0 3 2.4 5.5 5.5 5.5 3 0 5.5-2.4 5.5-5.5s-2.5-5.5-5.5-5.5z" fill="#253984" stroke-width="none" opacity="1"></path><path id="SvgjsPath12807" d="M82.7 89c-.1.3-.3.7-.5 1-.2.3-.4.6-.7.9.1-.3.3-.7.5-1 .2-.4.4-.7.7-.9zm.7.6-.6.9c-.2.3-.5.6-.8.8l.6-.9c.3-.3.5-.6.8-.8zm-.9 2c.2-.3.4-.5.6-.7.2-.2.5-.4.8-.5-.2.3-.4.5-.6.7-.2.2-.5.4-.8.5zm.3.6c.3-.2.6-.3.9-.4.3-.1.6-.2 1-.3-.3.2-.6.3-.9.4-.4.2-.7.3-1 .3zm.3.5c.3-.1.6-.2.9-.2s.6-.1.9-.1c-.3.1-.6.2-.9.2-.3.1-.6.2-.9.1zm.1.7c.2 0 .3-.1.5-.1h.5c.3 0 .6.1.9.2-.3.1-.6 0-.9 0-.2 0-.3 0-.4-.1-.3.1-.5.1-.6 0zm-.2.6c.3 0 .6.1.9.1l.9.3c-.3 0-.6-.1-.9-.1-.3 0-.6-.1-.9-.3zm0 .7c.2 0 .3.1.4.1.1.1.3.1.4.2.3.1.5.3.7.5-.3-.1-.6-.2-.8-.3-.1-.1-.3-.1-.4-.2 0-.1-.2-.2-.3-.3zm-.5.8c.3.1.5.2.7.4.2.2.4.3.6.6-.3-.1-.5-.2-.7-.4l-.6-.6zm-.9-6.8c0 .3-.1.7-.2 1-.1.3-.2.6-.4.9 0-.3.1-.7.2-1 .1-.3.2-.7.4-.9zm-1.3 1.7c-.1-.3 0-.7 0-1 0-.3.1-.7.2-1 .1.3 0 .7 0 1s-.1.7-.2 1zm-1.1-2c.1.3.2.7.3 1 .1.3.1.7.1 1-.1-.3-.2-.6-.3-1 0-.2-.1-.3-.1-.5v-.5zm-1.1.4c.2.3.3.6.4.9.1.3.2.7.3 1-.2-.3-.3-.6-.4-.9-.2-.3-.3-.7-.3-1zm-.9.5c.2.2.5.5.7.8s.4.6.5.9c-.2-.2-.5-.5-.7-.8-.2-.3-.4-.5-.5-.9zm-1 .9c.3.2.7.4.9.7.3.2.6.5.8.8-.3-.2-.7-.4-.9-.7-.3-.3-.6-.5-.8-.8zm-.3 1c.3.1.5.2.8.3.2.1.5.3.7.5-.3-.1-.5-.2-.8-.3-.3-.1-.5-.3-.7-.5zm-.5 1c.3 0 .5 0 .8.1s.5.1.7.3c-.3 0-.5 0-.8-.1s-.4-.1-.7-.3zm-.2 1.2c.3-.1.6-.1.8-.1s.6 0 .8.1c-.3.1-.6.1-.8.1-.2 0-.5-.1-.8-.1zm.1.9c.2-.1.5-.2.8-.2.3-.1.5-.1.8-.1-.2.1-.5.2-.8.2-.2.1-.5.1-.8.1zm.1.9c.3-.2.6-.3.9-.3s.6-.2.9-.2c-.3.2-.6.3-.9.3-.3.1-.6.2-.9.2zm.5.9c.2-.2.5-.3.8-.5.3-.1.5-.2.8-.3-.2.2-.5.3-.8.5-.2.1-.5.2-.8.3zm.8.9c.1-.2.3-.4.5-.6.2-.2.4-.4.6-.5-.1.2-.3.4-.5.6-.2.2-.4.4-.6.5zm.9.8c.1-.3.2-.7.4-.9.2-.3.3-.6.6-.9-.1.3-.2.7-.4.9-.2.4-.4.7-.6.9zm1.1.4c0-.3 0-.5.1-.8.1-.3.2-.5.3-.8 0 .3 0 .5-.1.8 0 .3-.1.5-.3.8zm2.7-1.8c.2.2.2.5.3.7.1.3.2.5.2.8-.2-.2-.2-.5-.3-.7-.1-.2-.2-.5-.2-.8zm.7-.3c.2.2.4.4.5.6.2.2.3.4.4.7-.2-.2-.4-.4-.5-.6-.2-.2-.3-.4-.4-.7zm-1.5.6c.1.2.1.5.2.8v.8c-.1-.2-.1-.5-.2-.8v-.8zm-.7.1c.1.2.1.5.1.7 0 .3 0 .5-.1.8-.1-.3-.1-.5-.1-.8 0-.2.1-.5.1-.7z" fill="#152975" stroke-width="none" opacity="1"></path><path id="SvgjsPath12808" d="M80.1 90.6c1.6 0 2.9 1.3 2.9 2.9s-1.3 2.9-2.9 2.9-2.9-1.3-2.9-2.9 1.2-2.9 2.9-2.9z" fill="#000000" stroke-width="none" opacity="1"></path><path id="SvgjsPath12809" d="m79.3 91.1-.6-.6c-.2-.2-.5-.3-.7-.3-.2 0-.6.1-.7.3-.2.2-.3.5-.3.8 0 .3.1.5.3.7l.6.6c.2.2.5.3.7.3.2 0 .6-.1.7-.3.4-.4.4-1.1 0-1.5zm2.8 5c.9 0 .9-1.5 0-1.5s-1 1.5 0 1.5z" fill="#ffffff" stroke-width="none" opacity="1"></path></g></g></g><g id="svga-group-eyesfront-left"><path id="SvgjsPath12732" d="M69.4 94.6c0 6.4 4.7 11.5 10.6 11.5s10.6-5.2 10.6-11.5S85.9 83.1 80 83.1s-10.6 5.1-10.6 11.5zm.7 3.3s.1-1.2 1.7-3.4c1.6-2.2 3.4-3.4 7-4.3s6.7.7 8.7 2.7c2 1.9 2.4 4.8 2.5 4.8 0 0-.9.3-1.8.5s-6.3 1-10.5.9c-4.2-.2-7.6-1.2-7.6-1.2z" fill="#f0c7b1" stroke-width="none" opacity="1"></path><path id="SvgjsPath12733" d="M90.1 96.2c-1.1-4.4-4.7-7.9-9.4-8.1-4.5-.2-8 2.5-9.9 6.5-.1.2-.3 0-.3-.1 1.4-4.4 5.9-7.3 10.5-6.8 4.7.5 8.3 3.9 9.1 8.5z" fill="#e1ac8f" stroke-width="none" opacity="1"></path><path id="SvgjsPath12734" d="M69.7 98.1c.1.2.3.3.4.2 2.7 1.2 6.5 1.2 9.3 1.2 3.4 0 7.1-.3 10.3-1.5.1.2.4.2.4-.1-.3-5-5.2-8.7-10-8.6-4.7.1-9.7 3.6-10.4 8.4-.1.1-.2.3 0 .4zm4 .2c-1.1-.2-2.1-.4-3.2-.5 2.1-3.8 4.6-7 9.3-7.3 4.9-.3 8.3 2.7 9.8 7-3.4.6-6.7 1.3-10.2 1.3-1.8-.1-3.8-.2-5.7-.5z" fill="#000000" stroke-width="none" opacity="1"></path></g></g></g><g id="svga-group-eyes-right-move" transform="matrix(1,0,0,1,0,0)"><g id="svga-group-eyes-right"><g id="svga-group-eyesback-right"><path id="SvgjsPath12725" d="M110.1 97.6c0-.1.5-2.9 2.5-4.8s5.1-3.6 8.7-2.7c3.5.9 5.3 2.1 7 4.3 1.6 2.2 1.7 3.4 1.7 3.4s-3.4 1.1-7.6 1.1c-4.1.1-9.6-.7-10.5-.9-.9 0-1.8-.4-1.8-.4z" fill="#ffffff" stroke-width="none" opacity="1"></path></g><g id="svga-group-eyesiriswrapper-right" transform="matrix(1,0,0,1,0,0)"><g id="svga-group-eyesiriscontrol-right" transform="matrix(1,0,0,1,0,0)"><g id="svga-group-eyesiris-right"><path id="SvgjsPath12810" d="M119.9 88.3c2.9 0 5.2 2.3 5.2 5.2s-2.3 5.2-5.2 5.2-5.2-2.3-5.2-5.2 2.4-5.2 5.2-5.2z" fill="#4e60a3" stroke-width="none" opacity="1"></path><path id="SvgjsPath12811" d="M119.9 88.6c2.7 0 4.9 2.2 4.9 4.9s-2.2 4.9-4.9 4.9-4.9-2.2-4.9-4.9 2.2-4.9 4.9-4.9m0-.5c-3 0-5.5 2.4-5.5 5.5 0 3 2.4 5.5 5.5 5.5 3 0 5.5-2.4 5.5-5.5s-2.4-5.5-5.5-5.5z" fill="#253984" stroke-width="none" opacity="1"></path><path id="SvgjsPath12812" d="M122.6 89c-.1.3-.3.7-.5 1-.2.3-.4.6-.7.9.1-.3.3-.7.5-1 .2-.4.4-.7.7-.9zm.7.6-.6.9c-.2.3-.5.6-.8.8l.6-.9c.3-.3.5-.6.8-.8zm-.9 2c.2-.3.4-.5.6-.7.2-.2.5-.4.8-.5-.2.3-.4.5-.6.7-.3.2-.5.4-.8.5zm.3.6c.3-.2.6-.3.9-.4.3-.1.6-.2 1-.3-.3.2-.6.3-.9.4-.4.2-.7.3-1 .3zm.3.5c.3-.1.6-.2.9-.2s.6-.1.9-.1c-.3.1-.6.2-.9.2-.3.1-.6.2-.9.1zm.1.7c.2 0 .3-.1.5-.1h.5c.3 0 .6.1.9.2-.3.1-.6 0-.9 0-.2 0-.3 0-.4-.1-.3.1-.5.1-.6 0zm-.2.6c.3 0 .6.1.9.1l.9.3c-.3 0-.6-.1-.9-.1-.3 0-.6-.1-.9-.3zm0 .7c.2 0 .3.1.4.1.1.1.3.1.4.2.3.1.5.3.7.5-.3-.1-.6-.2-.8-.3-.1-.1-.3-.1-.4-.2 0-.1-.2-.2-.3-.3zm-.5.8c.3.1.5.2.7.4.2.2.4.3.6.6-.3-.1-.5-.2-.7-.4l-.6-.6zm-.9-6.8c0 .3-.1.7-.2 1-.1.3-.2.6-.4.9 0-.3.1-.7.2-1 .1-.3.2-.7.4-.9zm-1.3 1.7c-.1-.3 0-.7 0-1 0-.3.1-.7.2-1 .1.3 0 .7 0 1s-.1.7-.2 1zm-1.1-2c.1.3.2.7.3 1 .1.3.1.7.1 1-.1-.3-.2-.6-.3-1 0-.2-.1-.3-.1-.5v-.5zm-1.1.4c.2.3.3.6.4.9.1.3.2.7.3 1-.2-.3-.3-.6-.4-.9-.2-.3-.3-.7-.3-1zm-.9.5c.2.2.5.5.7.8s.4.6.5.9c-.2-.2-.5-.5-.7-.8-.2-.3-.4-.5-.5-.9zm-1 .9c.3.2.7.4.9.7.3.2.6.5.8.8-.3-.2-.7-.4-.9-.7-.3-.3-.6-.5-.8-.8zm-.3 1c.3.1.5.2.8.3.2.1.5.3.7.5-.3-.1-.5-.2-.8-.3-.3-.1-.5-.3-.7-.5zm-.5 1c.3 0 .5 0 .8.1s.5.1.7.3c-.3 0-.5 0-.8-.1s-.4-.1-.7-.3zm-.2 1.2c.3-.1.6-.1.8-.1s.6 0 .8.1c-.3.1-.6.1-.8.1-.2 0-.5-.1-.8-.1zm.1.9c.2-.1.5-.2.8-.2.3-.1.5-.1.8-.1-.2.1-.5.2-.8.2-.2.1-.5.1-.8.1zm.1.9c.3-.2.6-.3.9-.3s.6-.2.9-.2c-.3.2-.6.3-.9.3-.3.1-.6.2-.9.2zm.5.9c.2-.2.5-.3.8-.5.3-.1.5-.2.8-.3-.2.2-.5.3-.8.5-.3.1-.5.2-.8.3zm.8.9c.1-.2.3-.4.5-.6.2-.2.4-.4.6-.5-.1.2-.3.4-.5.6-.2.2-.4.4-.6.5zm.9.8c.1-.3.2-.7.4-.9.2-.3.3-.6.6-.9-.1.3-.2.7-.4.9-.2.4-.4.7-.6.9zm1.1.4c0-.3 0-.5.1-.8.1-.3.2-.5.3-.8 0 .3 0 .5-.1.8-.1.3-.1.5-.3.8zm2.7-1.8c.2.2.2.5.3.7.1.3.2.5.2.8-.2-.2-.2-.5-.3-.7-.1-.2-.2-.5-.2-.8zm.7-.3c.2.2.4.4.5.6.2.2.3.4.4.7-.2-.2-.4-.4-.5-.6-.2-.2-.3-.4-.4-.7zm-1.5.6c.1.2.1.5.2.8v.8c-.1-.2-.1-.5-.2-.8v-.8zm-.7.1c.1.3.1.5.1.8 0 .3 0 .5-.1.8-.1-.3-.1-.5-.1-.8 0-.3.1-.6.1-.8z" fill="#152975" stroke-width="none" opacity="1"></path><path id="SvgjsPath12813" d="M119.9 90.6c1.6 0 2.9 1.3 2.9 2.9s-1.3 2.9-2.9 2.9-2.9-1.3-2.9-2.9 1.3-2.9 2.9-2.9z" fill="#000000" stroke-width="none" opacity="1"></path><path id="SvgjsPath12814" d="m119.2 91.1-.6-.6c-.2-.2-.5-.3-.7-.3-.2 0-.6.1-.7.3-.2.2-.3.5-.3.7 0 .3.1.5.3.7l.6.6c.2.2.5.3.7.3.2 0 .6-.1.7-.3.4-.3.4-1 0-1.4zm2.7 5c.9 0 .9-1.5 0-1.5s-.9 1.5 0 1.5z" fill="#ffffff" stroke-width="none" opacity="1"></path></g></g></g><g id="svga-group-eyesfront-right"><path id="SvgjsPath12735" d="M120 83.1c-5.9 0-10.6 5.2-10.6 11.5s4.7 11.5 10.6 11.5 10.6-5.2 10.6-11.5-4.8-11.5-10.6-11.5zm2.3 15.9c-4.1.1-9.6-.7-10.5-.9-.9-.2-1.8-.5-1.8-.5 0-.1.5-2.9 2.5-4.8s5.1-3.6 8.7-2.7 5.3 2.1 7 4.3c1.6 2.2 1.7 3.4 1.7 3.4s-3.4 1.1-7.6 1.2z" fill="#f0c7b1" stroke-width="none" opacity="1"></path><path id="SvgjsPath12738" d="M109.9 96.2c1.1-4.4 4.7-7.9 9.4-8.1 4.5-.2 8 2.5 9.9 6.5.1.2.3 0 .3-.1-1.4-4.4-5.9-7.3-10.5-6.8-4.7.5-8.3 3.9-9.1 8.5z" fill="#e1ac8f" stroke-width="none" opacity="1"></path><path id="SvgjsPath12739" d="M130.3 97.7c-.7-4.8-5.8-8.3-10.4-8.4-4.8-.1-9.7 3.6-10 8.6 0 .2.3.3.4.1 3.3 1.1 6.9 1.5 10.3 1.5 2.8 0 6.6 0 9.3-1.2.2.1.4 0 .4-.2.2-.1.1-.3 0-.4zm-9.8 1c-3.5 0-6.8-.6-10.2-1.3 1.5-4.4 4.9-7.3 9.8-7 4.7.3 7.2 3.6 9.3 7.3-1.1.1-2.1.4-3.2.5-1.8.4-3.8.5-5.7.5z" fill="#000000" stroke-width="none" opacity="1"></path></g></g></g><g id="svga-group-facehighlight-single"></g><g id="svga-group-eyebrows-left-move" transform="matrix(1,0,0,1,0,0)"><g id="svga-group-eyebrows-left-rotate" transform="matrix(1,1.7453292144864463e-9,-1.7453292144864463e-9,1,1.4176200124893512e-7,-1.3606350535155798e-7)"><g id="svga-group-eyebrows-left"><path id="SvgjsPath12638" d="M67 82.5c.1-.3.3-.6.5-.8.1-.2.3-.5.5-.7.2-.2.4-.4.7-.6.5-.9 1.7-1.6 2.5-2.1.9-.5 1.8-.9 2.9-.9 1-.2 2.1-.2 2.9.2.4 0 .7.1 1 .3 1.1-.1 2.3.2 3.3.4 1.4.3 2.8.6 4.1 1.2 1.4 0 2.8.1 4.1.5h.2c.1 0 .2.1.2.1h.1c.1 0 .2.1.3.2.1.1 0 .3 0 .4v.1c0 .2 0 .4-.1.6 0 .6-.1 1.1-.5 1.6 0 .1 0 .2-.1.3-.1.5-.2 1.1-.7 1.4-.2.2-.5.3-.8.3-.1 0-.2 0-.3-.1h-.6c-.6.2-1.4 0-1.9-.1-.6-.1-1.2-.3-1.7-.6-1.8-.3-3.5-.8-5.3-1.2-1.6-.4-4-.4-5.4-1.3-.7.1-1.3.2-2 .2-.3 0-.7.1-1.1 0-.2 0-.5 0-.7-.2 0 0-.1 0-.1-.1h-.1l-.4.4c-.3.3-.7.7-1.2.8-.1.2-.3 0-.3-.3z" fill="#6b4e40" stroke-width="none" opacity="1"></path><path id="SvgjsPath12639" d="M87.7 83c-.1-.6-.2-1.2-.4-1.7 0-.2.2-.3.3-.1.7 1 .9 2.8.2 3.9-.1.2-.3.1-.3-.1.1-.8.2-1.4.2-2zm-3.4-3.2c1.3.8 2.1 2.6 2.1 4 0 .2-.3.3-.3.1-.2-.7-.4-1.3-.7-1.9-.3-.7-.9-1.2-1.3-1.9-.3-.2 0-.4.2-.3zm-3.3-.7c2.2.8 3.8 3.2 4.2 5.3 0 .2-.2.2-.3.1-.4-1-.9-2-1.7-2.8-.7-.9-1.6-1.4-2.5-2.2-.2-.1.1-.5.3-.4zm-4.9-.8c2.4.6 4.8 2.6 5.8 4.7.1.2-.3.4-.4.2-.8-1-1.6-1.9-2.6-2.7-.9-.7-2-1.2-3-1.8-.2-.1-.1-.4.2-.4zM67.4 82c1.6-1.8 3.8-4.3 6.5-4 .2 0 .2.3 0 .3-2.6.2-4.3 2.5-6.3 3.9-.2.1-.4-.1-.2-.2z" fill="#7a6155" stroke-width="none" opacity="1"></path><path id="SvgjsPath12640" d="M90.9 80.6c-.1-.3-.5-.3-.6 0-.3 1.1-.3 2.4-1.2 3.3-.6.7-1.5.8-2.4.7.3-1.5.2-3.7-.8-4.9-.2-.2-.5-.1-.4.2 0 .8.4 1.6.5 2.4.1.8.2 1.5.2 2.3-.1 0-.2 0-.3-.1-.3-2-1.3-4.1-2.8-5.5 2.3.5 4.6.9 6.9 1.1.1 0 .2-.2.1-.2-2.6-.9-5.3-1.4-8-2-2.4-.5-5.1-1.4-7.6-1.5-2.1-.1-3.6.9-5 2.2-1.5 1.4-3.1 3.1-4.1 4.9l-.2.2c-.1.1-.2.3-.1.4 0 0 0 .1-.1.1-.2.4.3.7.6.4.1 0 .2 0 .3-.1 1.4-.7 2.5-1.4 4.1-1.6 1.3-.2 2.7-.1 4 .1 2.9.4 5.6 1.3 8.3 2.1 2.1.6 4.9 1.7 6.9.2 1.7-1 1.9-3.1 1.7-4.7zm-13.4 1.3c-.5-.1-1.1-.2-1.7-.3.1-1.1-.3-2.3-.8-3.3.7.6 1.4 1.2 2 1.9.6.6.9 1.4 1.5 2-.4-.1-.7-.2-1-.3zM70 79.5c1.2-1.1 2.5-1.7 4-1.9.2.8.6 1.6.7 2.4l.3 1.5c-.3 0-.7-.1-1-.1-.5-.9-1.3-1.8-2.3-2.1-.2-.1-.3.2-.2.4.4.4.9.8 1.3 1.2.1.2.2.3.4.5-1.9-.1-3.8.1-5.4.8.6-1 1.3-1.9 2.2-2.7zm15.2 4.8c-.2-.1-.4-.1-.6-.2-.4-.1-.9-.3-1.3-.4-.8-1.8-2.1-3.6-3.7-4.8-.2-.1-.4.1-.3.2 1.2 1.4 2.2 2.9 3.3 4.4-1.1-.4-2.2-.7-3.2-1.1-.2-1.1-1.2-2.2-1.9-3-.7-.7-1.5-1.4-2.4-1.9.4 0 .8.1 1.3.1 2 .3 4 .8 6 1.2v.1c.7 1.1 1.5 2.2 2.1 3.3.2.7.4 1.4.7 2.1z" fill="#5c3d2e" stroke-width="none" opacity="1"></path></g></g></g><g id="svga-group-eyebrows-right-move" transform="matrix(1,0,0,1,0,0)"><g id="svga-group-eyebrows-right-rotate" transform="matrix(1,1.7453292144864463e-9,-1.7453292144864463e-9,1,1.4176202967064455e-7,-2.127084570702209e-7)"><g id="svga-group-eyebrows-right"><path id="SvgjsPath12641" d="M133 82.5c-.1-.3-.3-.6-.5-.8-.1-.2-.3-.5-.5-.7-.2-.2-.4-.4-.7-.6-.5-.9-1.7-1.6-2.5-2.1-.9-.5-1.8-.9-2.9-.9-1-.2-2.1-.2-2.9.2-.4 0-.7.1-1 .3-1.1-.1-2.3.2-3.3.4-1.4.3-2.8.6-4.1 1.2-1.4 0-2.8.1-4.1.5h-.2c-.1 0-.2.1-.2.1h-.1c-.1 0-.2.1-.3.2-.1.1 0 .3 0 .4v.1c0 .2 0 .4.1.6 0 .6.1 1.1.5 1.6 0 .1 0 .2.1.3.1.5.2 1.1.7 1.4.2.2.5.3.8.3.1 0 .2 0 .3-.1h.6c.6.2 1.4 0 1.9-.1.6-.1 1.2-.3 1.7-.6 1.8-.3 3.5-.8 5.3-1.2 1.6-.4 4-.4 5.4-1.3.7.1 1.4.2 2 .2.3 0 .7.1 1.1 0 .2 0 .5 0 .7-.2 0 0 .1 0 .1-.1h.1l.4.4c.3.3.7.7 1.2.8.1.2.3 0 .3-.3z" fill="#6b4e40" stroke-width="none" opacity="1"></path><path id="SvgjsPath12642" d="M112.3 83c.1-.6.2-1.2.4-1.7 0-.2-.2-.3-.3-.1-.7 1-.9 2.8-.2 3.9.1.2.3.1.3-.1-.1-.8-.2-1.4-.2-2zm3.4-3.2c-1.3.8-2.1 2.6-2.1 4 0 .2.3.3.3.1.2-.7.4-1.3.7-1.9.3-.7.9-1.2 1.3-1.9.3-.2 0-.4-.2-.3zm3.3-.7c-2.2.8-3.8 3.2-4.2 5.3 0 .2.2.2.3.1.4-1 .9-2 1.7-2.8.7-.9 1.6-1.4 2.5-2.2.2-.1-.1-.5-.3-.4zm4.9-.8c-2.4.6-4.8 2.6-5.8 4.7-.1.2.3.4.4.2.8-1 1.6-1.9 2.6-2.7.9-.7 2-1.2 3-1.8.2-.1.1-.4-.2-.4zm8.7 3.7c-1.6-1.8-3.8-4.3-6.5-4-.2 0-.2.3 0 .3 2.6.2 4.3 2.5 6.3 3.9.2.1.4-.1.2-.2z" fill="#7a6155" stroke-width="none" opacity="1"></path><path id="SvgjsPath12643" d="M110.6 85.3c2 1.5 4.8.4 6.9-.2 2.8-.8 5.5-1.8 8.3-2.1 1.3-.2 2.7-.3 4-.1 1.6.2 2.7.9 4.1 1.6.1.1.2.1.3.1.3.3.8 0 .6-.4 0 0 0-.1-.1-.1 0-.1 0-.3-.1-.4l-.2-.2c-1-1.8-2.6-3.5-4.1-4.9-1.4-1.3-2.9-2.3-5-2.2-2.5.1-5.2 1-7.6 1.5-2.7.6-5.4 1.1-8 2-.2.1-.1.2.1.2 2.3-.2 4.6-.6 6.9-1.1-1.5 1.4-2.5 3.5-2.8 5.5-.1 0-.2 0-.3.1.1-.8.1-1.5.2-2.3.1-.8.5-1.6.5-2.4 0-.2-.3-.3-.4-.2-1 1.2-1.1 3.4-.8 4.9-.9.1-1.7 0-2.4-.7-.8-.9-.9-2.2-1.2-3.4-.1-.3-.5-.3-.6 0 0 1.7.2 3.8 1.7 4.8zm10.9-3.2c.5-.6.9-1.4 1.5-2 .6-.7 1.3-1.3 2-1.9-.5 1-.9 2.3-.8 3.3-.6.1-1.2.2-1.7.3-.3.2-.6.3-1 .3zm10.8 0c-1.6-.7-3.6-.9-5.4-.8.1-.2.2-.3.4-.5.4-.5.9-.8 1.3-1.2.1-.1.1-.4-.2-.4-1 .3-1.8 1.2-2.3 2.1-.3 0-.7.1-1 .1l.3-1.5c.2-.8.5-1.6.7-2.4 1.4.2 2.7.8 4 1.9.8.9 1.5 1.8 2.2 2.7zm-16.7.2c.6-1.2 1.4-2.2 2.1-3.3v-.1c2-.4 4-.9 6-1.2.4-.1.9-.1 1.3-.1-.9.5-1.7 1.2-2.4 1.9-.7.8-1.7 1.9-1.9 3-1.1.3-2.2.7-3.2 1.1 1-1.5 2.1-2.9 3.3-4.4.1-.2-.1-.3-.3-.2-1.6 1.2-2.9 3-3.7 4.8-.4.1-.9.3-1.3.4-.2.1-.4.1-.6.2.2-.8.4-1.5.7-2.1z" fill="#5c3d2e" stroke-width="none" opacity="1"></path></g></g></g><g id="svga-group-beardwrap"><g id="svga-group-beard-single-move" transform="matrix(1,0,0,1,0,0)"><g id="svga-group-beard-single"></g></g></g><g id="svga-group-mustache-single-move" transform="matrix(1,0,0,1,0,0)"><g id="svga-group-mustache-single"><path id="SvgjsPath12952" d="M101.9 123.6c.5.3 2.1.5 4 .4 1.9-.1 12.6-.3 13.6-.5s3.2 3.7 3.8 3.1.4-7.5-.4-7.8c-.8-.3-6.1-1.3-9.5-1.4s-11 .5-12.1 1h-1.6c-1.1-.5-8.7-1.1-12.1-1s-8.7 1.1-9.5 1.4c-.8.3-1 7.2-.4 7.8s2.8-3.3 3.8-3.1 11.7.4 13.6.5 3.5-.1 4-.4l1.4-.9 1.4.9z" fill="#6b4e40" stroke-width="none" opacity="1"></path><path id="SvgjsPath12953" d="M99.8 119.3c-2.1 2-4.3 3.1-7.1 3.7-.2 0-.1.3 0 .3 2.7-.2 5.6-1.6 7.4-3.7.2-.2-.1-.5-.3-.3zm-2.1.1c-3.5 1.6-6.8 2.6-10.6 3.2-.2 0-.1.3 0 .3 3.7-.1 7.5-1.3 10.7-3.2.2-.1 0-.4-.1-.3zm-4.9-.8c-3.6 1.3-7.2 2.8-10.7 4.4-.1.1 0 .3.1.2 3.6-1.2 7.3-2.7 10.6-4.4.1-.1.1-.3 0-.2zm-6.4-.4c-2.9.7-5.6 2.4-7.2 4.9-.1.1.1.2.2.1 1.9-2.2 4.2-4 7.1-4.9.1 0 0-.2-.1-.1zm-6.9.9c-1.1 1.9-1.7 4.1-1.6 6.2 0 .2.2.2.2 0 .2-2.2.7-4.1 1.6-6.1.1-.1-.1-.2-.2-.1zm21.7.6c-.1-.2-.3-.1-.3.1.3 1.8 1.7 3.6 3.6 3.8.1 0 .2-.2.1-.2-1.7-.8-3-1.8-3.4-3.7zm7.9 2.9c-2.3-.7-4.4-1.6-5.5-3.9-.1-.1-.3 0-.2.1.9 2.4 3.2 3.8 5.7 4 .1 0 .1-.2 0-.2zm5-.1c-2.5-.6-4.9-1.1-6.6-3.2-.1-.1-.3 0-.2.2 1.6 2.1 4.2 3.1 6.8 3.3.1 0 .2-.3 0-.3zm-1.3-3.8c-.1-.1-.3.1-.2.2 1.5 1.7 3.6 3.2 5.8 3.7.2 0 .3-.2.1-.3-2.1-1-3.9-1.9-5.7-3.6zm3 .4c-.1-.1-.3.1-.2.2 1 .9 2.1 1.8 3.4 2.2.1.1.2-.2.1-.2-1.1-.8-2.2-1.4-3.3-2.2zm3.6-.2c-.1-.1-.2.1-.1.2 2.1 1.4 3 3.5 3.3 5.9 0 .2.2.2.2 0 .3-2.5-1.3-4.8-3.4-6.1z" fill="#5c3d2e" stroke-width="none" opacity="1"></path></g></g><g id="svga-group-nose-single-move" transform="matrix(1,0,0,1,0,0)"><g id="svga-group-nose-single"><path id="SvgjsPath12856" d="M105.06 106.65c.56.92 2.64 3.61 3.09 4.9.45 1.29-.13 3.22-1.48 3.61s-3.61-.39-3.93-.19c-.32.19-1.87 2.06-2.58 1.93-.71-.13-2.64-2.13-3.03-2.13-.39 0-2.13.45-2.97.45-.84 0-2.9-.71-2.64-2.51.26-1.81 2.45-5.54 2.9-6.06.45-.52 1.48-2.32 1.74-3.42s.58-7.03.71-8.38c.13-1.35 1.35-2.97 2.58-3.09 1.23-.13 3.35.77 3.55 2.9.19 2.13.58 6.38.77 8.12.19 1.74.58 2.71 1.29 3.87z" fill="#f0c7b1" stroke-width="none" opacity="1" transform="translate(0 1)"></path><path id="SvgjsPath12857" d="M97.62 85.76c-.84 3.5-.96 7.24-1.34 10.81-.4 3.83-1.14 7.78-1.09 11.63 0 .31.48.39.55.07.78-3.52.88-7.26 1.24-10.84.39-3.82 1.1-7.79.98-11.63 0-.18-.29-.24-.34-.04z" fill="#c27b55" stroke-width="none" opacity="1" transform="translate(0 1)"></path><path id="SvgjsPath12858" d="M94.46 106.19c-1.03 1.37-1.9 2.87-2.65 4.41-.49 1-1.09 2.17-.77 3.32.53 1.89 2.93 2.49 4.5 1.58.47-.27.26-.99-.27-1-.92-.01-1.98.28-2.72-.5-.88-.94-.01-2.63.38-3.57.58-1.39 1.28-2.72 1.83-4.12.07-.19-.2-.26-.3-.12z" fill="#c27b55" stroke-width="none" opacity="1" transform="translate(0 1)"></path><path id="SvgjsPath12859" d="M94.31 113.98c2.84-.21 3.38 3.37 6.07 3.45 2.31.07 2.5-3.41 4.69-3.3.26.01.34-.35.13-.47-2.49-1.47-2.95 2.86-5.24 2.59-1.36-.16-2.32-2.16-3.54-2.73-.83-.39-1.43-.36-2.23.02-.22.09-.11.46.12.44z" fill="#c27b55" stroke-width="none" opacity="1" transform="translate(0 1)"></path><path id="SvgjsPath12860" d="M104.29 115.6c1.87.42 4.05-.16 4.49-2.24.22-1.04-.13-2.07-.67-2.95-.89-1.44-2.03-2.66-2.87-4.15-.14-.25-.49-.12-.51.14-.11 1.67 1.13 2.83 2.02 4.12.82 1.19 1.53 2.83.15 4-.63.54-1.83.44-2.6.59-.26.04-.25.43-.01.49z" fill="#c27b55" stroke-width="none" opacity="1" transform="translate(0 1)"></path><path id="SvgjsPath12861" d="M102.45 109.98c-.41-.74-1.47-.85-2.06-.26-.05.05-.24.29-.3.36-.07.09-.2.26-.23.29-.07.1-.12.21-.18.32l-.12.28c0-.01-.01.01-.03.05-.06.06-.12.13-.18.2-.18.19-.36.38-.5.6-.42.67-.08 1.42.48 1.84.87.65 2.13.13 2.74-.61.76-.89.96-2.03.38-3.07z" fill="#f8d5c3" stroke-width="none" opacity="1" transform="translate(0 1)"></path></g></g><g id="svga-group-hair-front"><path id="SvgjsPath12964" d="M135.8 66.3c-1 3.3-1 5.1-.9 7.6.1 2.4-1 5.1 1.1 4.8 2.1-.3 4.4-.7 5.7-4.2 1.3-3.5 3-8.2 2.9-10-.1-1.8-3.7-9-3.7-9l-3.3 7.8-1.8 3z" fill="#634536" stroke-width="none" opacity="1"></path><path id="SvgjsPath12965" d="M143.8 74c.4-3.6 1-8.5.2-9.3-.8-.8-5.6 2.2-6 4.8s-.4 7.5-.4 7.5c-.7 2.7-.8 4-.7 5.8.1 1.8-1 3.9.7 3.6.1 0 .2 0 .2-.1-.3 2.3-.1 3.8.2 5.4.3 2.2-.7 4.5 1 4.6s2.7-.6 3.5-3.8c.8-3.2 1.3-6.4 1.4-9.5.1-2.5.2-6.3-.2-8.4.1-.2.1-.4.1-.6zm-81.6 6.8c-.5-1.6-.3-4-1-5.3s-3.5-6.4-3.5-6.4c-.9 1.8-2.3 3.9-2.3 7.1 0 2.7-.4 4.6.2 6.2-.1 1.2-.1 2.4 0 3.1.2 1.1 1.8 8.1 3.4 9.1 1.4.8 2.4-2.9 2.2-6.2 1.6-2.9 1.5-6.1 1-7.6z" fill="#5c3d2e" stroke-width="none" opacity="1"></path><path id="SvgjsPath12966" d="M59.3 61c-.9.8-2.3 3.2-2.7 5.7s-.4 5 .1 6.2c.6 1.1 3.6 7.3 5.6 6.3 2-1 1.3-3 1.1-6.2s.1-3.7-.7-6.4c-.8-2.8-3.4-5.6-3.4-5.6zm8.9-37.1c-.7-2.5 3 1.4 2.9 7.5-.1 6.2 1 10.6 3.8 13 2.8 2.4 13.2 11.2 13.2 11.2s-2.4.7-7.2-.7-11-3.5-14.2-7.6-2.3-10.2-.9-13.2c1.4-2.9 3.3-6.9 2.4-10.2zm51.4 32c2.2-.6 5.8-1.7 7.5-.6 1.6 1.1 1.7 4.7 5.3 4.6 3.6-.1 6.8-6.5 6.5-9.4-.2-2.9-2.4-7.8-5.9-9.1-3.5-1.3-3.1 2.6-3.5 4.1-.4 1.5.1 2.5-3.5 5.1-3.5 2.7-6.4 5.3-6.4 5.3z" fill="#634536" stroke-width="none" opacity="1"></path><path id="SvgjsPath12967" d="M131.3 58.4c-.2 1.1-.4 4.4 1.1 6.4s.6 4.3 3.8 3.1c3.2-1.2 6.9-5.4 6.6-8.5-.2-3.1-2.7-10.6-5.3-12-2.7-1.3-2.9 4.6-2.9 4.6l-3.3 6.4zM66.4 40c-1.8 2.1-4.9 2.8-4.2 6.5s5.4 7.7 9.8 8.3 7.7-.1 8.3-.6-9.6-6.2-9.6-6.2l-4.3-8z" fill="#6b4e40" stroke-width="none" opacity="1"></path><path id="SvgjsPath12968" d="M62.8 45.5c-1.2 1-2.4 1.5-2.8 4.4-.4 2.9-.5 3.4 1.2 6.7 1.8 3.3 2 5.3 4.6 4.7 2.6-.6 5.5-2.9 5.2-6.5s-2.7-1.3-3.9-4.5-2.1-3.9-2.1-3.9l-2.2-.9z" fill="#634536" stroke-width="none" opacity="1"></path><path id="SvgjsPath12969" d="M60.9 52.2c-1.2 1.6-2.6 1.9-2.9 4.9s-1.3 2.9.7 6.4c2 3.5 4 7.7 5.9 5.7s1.6-3 1.9-5.4c.3-2.4-.6-4.9-1.7-7-1.2-2.2-3.9-4.6-3.9-4.6zm34.5 5s-6.4 0-10.1-1.8c-3.7-1.8-11.6-8.7-13.2-13.6s.4-14.4-.8-18.9c0 0 1.5 3.8 2.9 5.8s4.4 2 9.2 4.8 9.1 8.5 9.8 12.8 2.2 10.9 2.2 10.9z" fill="#5c3d2e" stroke-width="none" opacity="1"></path><path id="SvgjsPath12970" d="M73.7 18.1c-.1-.5-2 6.7 2 10.6S85.9 37 87.2 42.2s.9 6.1 2.3 9.3 3.2 6.4 5.8 7.6c2.6 1.2 7.4-.2 7.4-1s4.1 3.5 6.8 2.2c2.7-1.3 10.3-10.6 11.4-17.2s-2.4-13.6-6.8-14.7-21.6-2.4-25.2-4.3c-3.6-1.9-5.2-3.7-5.6-5.1 0 0-.3 3.4 3 7.4S96 33 96 33s4.7 1.2 5.3 5c0 0-8.2-6.4-15-8.9s-10-.9-12.6-11z" fill="#634536" stroke-width="none" opacity="1"></path><path id="SvgjsPath12971" d="M104.5 60.4s-4.2.3-5.8-4.5S98 42 95.1 37.1s-13.9-7.4-16.7-10.3c-2.7-2.9-3.8-9.3-3.8-9.3s2.7 7.9 6.7 8.4c3.9.5 17.3 4.9 21.7 6.9s9.1 10.3 8.2 15.5-2.5 12.6-6.7 12.1z" fill="#6b4e40" stroke-width="none" opacity="1"></path><path id="SvgjsPath12972" d="M110.6 26.7c.6 0 10.8 2.9 15.9 4.5s17 10.3 4.4 17.8-8 8.8-20.3 10.9c-3.4.6 3.6-5.6 6.3-11 2.7-5.4 2.5-14.6 1-16.6s-7.3-5.6-7.3-5.6z" fill="#5c3d2e" stroke-width="none" opacity="1"></path><path id="SvgjsPath12973" d="M96.3 58.9c-3.5-3-5.5-6.7-6.4-11.2-.6-3.2-.3-6.8-1.7-9.7-.9-1.8-2.2-3-3.8-4.1-4.4-3.1-7.9-5-9.8-10.5-.1-.2-.4-.1-.3.1.8 3 2.2 5.6 4.6 7.6 4.2 3.7 8.6 4.8 9.5 11.3.8 6.3 1.6 13.5 7.9 16.8-.1 0 .1-.2 0-.3zm2.5-.6c-6.1-2.7-8.2-8.4-8.7-14.6 0-.2-.3-.2-.3 0-.2 6.2 2.7 12.8 8.9 14.9.2 0 .3-.2.1-.3zm3.5.5c-3.5-4-4.4-8.4-4.3-13.6.1-2.9.5-5.9-1.2-8.5-1.4-2.2-3.7-3.1-5.9-4.2-3.7-1.8-7.3-3.6-11-5.1-.1 0-.2.1-.1.2 3.5 2 7.2 3.7 10.8 5.5 2.8 1.4 5.2 2.4 6.3 6 .6 1.9.2 4.2.2 6.1-.2 5.5 1.1 9.9 5 13.8.1.2.4-.1.2-.2zm3.6-.3c-3.7-3.2-1.6-6.9-1.5-11 0-2.6-.7-4.9-2-7.1-.1-.2-.3 0-.2.1 1.1 2.4 1.7 4.9 1.6 7.5-.1 1.8-.8 3.5-.8 5.3-.1 2.3 1 4 2.8 5.3.1.2.2 0 .1-.1zm18.3-25.6c-.2-.1-.3.2-.1.3.8.3 1.6.5 2.4.8v.1c7.6 6.6-2.7 14.6-7.7 18.1-.2.1 0 .4.2.3 5.3-2.8 16-12.5 8.1-18.3 3.1 1.3 3.8 2 4.7 5.5.8 3.2.4 4.9-2 7.4-1.3 1.4-3.1 2.4-4.8 3.4-4.2 2.5-7.9 5.8-12.2 8.2-.1 0 0 .2.1.1 4.4-2 8.1-5.5 12.3-8 2.8-1.7 5.7-3.5 7.1-6.5 3-6.4-2.7-10-8.1-11.4zm-10.5-3.3c-.1 0-.2.2 0 .2 4.6 1 9.8 2.1 10.5 7.7.5 4-2.1 7.8-4.8 10.4-3.5 3.3-7.4 5.9-8.2 11-.1.4.5.6.6.2 1.5-8.6 12.7-10.9 13.2-20.3.4-6.8-5.6-8.8-11.3-9.2zm-1.1 8.2c-4.2-9.5-17.4-8.6-24.7-14.5-.1-.1-.3.1-.2.2 7.2 6.7 18.9 5.6 24.3 14.6.3.3.8 0 .6-.3zm25.8 14.3c-.1-.2-.4-.2-.4 0 .1 5.3-6.3 8.5-4.5 14 .1.2.4.1.3-.1-1.3-5.4 5.8-8.4 4.6-13.9zm3.1 7.4c0-.2-.3-.2-.4 0-.6 1.8-1 3.6-1.9 5.3-.8 1.4-1.9 2.5-2.6 3.9-1 2-1.1 4-.5 6.1.1.2.4.1.3-.1-.6-4 1.4-5.9 3.3-9.1 1.1-1.9 1.6-4 1.8-6.1zm.7 2c0-.3-.4-.2-.5.1-.2 2.2-.4 4.1-1.2 6.1-.1.2.2.4.3.2 1-1.9 1.7-4.2 1.4-6.4zm0 11.7c0-.2-.3-.2-.4-.1-.6 3-1.6 5.7-2.5 8.6-.6 1.9-.8 3.6 0 5.4.1.3.6.1.5-.2-1-2.8.3-5.1 1.2-7.7.8-1.9 1.2-3.9 1.2-6zm-.2 8c-.5 1.1-.6 2.5-.6 3.7 0 .2.4.2.4 0 0-1.2.3-2.3.5-3.5 0-.3-.2-.5-.3-.2zM86.9 53.1c-4.5-1.6-8.2-3.9-10.6-8.2-2.5-4.4-2.2-9-2.3-13.9 0-.3-.5-.3-.5 0-.9 9.7 2.8 20 13.3 22.4.3.1.3-.2.1-.3zm-8.6-2c-2.7-1.7-5.5-4.7-7-7.5-1.9-3.4-1.8-7.3-1.7-11.1 0-.3-.4-.3-.4 0-.5 7.7 1.7 15 9 18.9.1.1.3-.2.1-.3zm-3.7.1c-3.8-1.8-6.7-4.4-8.4-8.4-.1-.2-.5-.2-.4.1 1.2 4 4.4 7.7 8.6 8.7.2.1.4-.3.2-.4zm-4.3 1.6c-1.7-.7-3.3-1.5-4.8-2.5-.1-.1-.2.1-.1.2 1.5 1 3.1 1.9 4.9 2.5.1-.1.1-.2 0-.2zM66 57.6c-1.6-1.5-3.2-2.8-4.4-4.6-.1-.2-.4 0-.3.2 1.2 1.8 2.7 3.6 4.5 4.7.1 0 .3-.2.2-.3zm55.6-20.7c-.4-3.5-3.1-6.2-6.5-6.7-.2 0-.2.2-.1.2 4.1 1.4 7.1 5.1 5.7 9.7-.8 2.6-3 4.6-4.6 6.7-.1.1.1.2.2.1 2.6-2.9 5.8-5.7 5.3-10zm-10.2-3.3c-.2-.2-.4.1-.2.2 5.6 6.5.8 14.3-1.4 21.2-.1.2.2.3.3.1 2.6-6.6 7.5-15.5 1.3-21.5zm-16.7-.9c-.2 0-.3.2-.1.3 8.9 2.5 3.9 14.4 6.7 20.7.1.2.3 0 .3-.1-1.8-6.4 2.2-18.9-6.9-20.9z" fill="#7a6155" stroke-width="none" opacity="1"></path></g><g id="svga-group-glasses-single-move" transform="matrix(1,0,0,1,0,0)"><g id="svga-group-glasses-single"><path id="SvgjsPath12891" d="M64.17 89.45c-1.04.99-.67 5.4.13 9.31.81 3.91 1.35 6.41 3.85 7.42 2.5 1.01 9.24 2.02 16.32 1.28s7.42-2.63 8.36-3.98c.94-1.35 3.58-8.9 3.71-10.79.13-1.89-3.1-2.63-4.99-2.97-1.89-.34-11.94-1.15-17-1.48-5.05-.34-9.1-.01-10.38 1.21z" fill="url(#SvgjsLinearGradient12892)" opacity="1"></path><path id="SvgjsPath12896" d="M135.83 89.45c1.04.99.67 5.4-.13 9.31s-1.35 6.41-3.85 7.42c-2.5 1.01-9.24 2.02-16.32 1.28s-7.42-2.63-8.36-3.98c-.94-1.35-3.58-8.9-3.71-10.79-.13-1.89 3.1-2.63 4.99-2.97 1.89-.34 11.94-1.15 17-1.48 5.05-.34 9.1-.01 10.38 1.21z" fill="url(#SvgjsLinearGradient12897)" opacity="1"></path><path id="SvgjsPath12901" d="M138.52 88.47c-.68-.54-3.81-.7-7.72-.9-3.75-.19-15.06.05-21.72 1.19-3.82.65-6.9 1.41-8.32 1.41h-1.5c-1.43 0-4.51-.75-8.32-1.41-6.66-1.14-17.97-1.38-21.72-1.19-3.91.2-7.04.36-7.72.9-.68.54 0 4.01.27 4.75.27.75.61.61.95 1.09.34.48.82 5.98 1.7 8.76.88 2.79 2.11 4.55 9.71 5.16 7.61.61 14.26-.34 16.78-1.49 2.51-1.15 4.35-6.11 4.82-7.68.48-1.56 1.02-3.26 1.43-4.08.41-.82 2.11-1.4 2.11-1.4h1.5s1.7.58 2.11 1.4c.41.82.95 2.51 1.43 4.08.48 1.56 2.31 6.52 4.82 7.68 2.51 1.15 9.17 2.11 16.78 1.49 7.61-.61 8.83-2.38 9.71-5.16.88-2.79 1.36-8.29 1.7-8.76.34-.48.68-.34.95-1.09.25-.74.93-4.2.25-4.75zm-43.28 6.39c-.95 4.35-3.04 9.19-4.51 10.37-2.22 1.79-11.4 2.38-16.55 1.79-5.15-.59-7.58-1.35-8.61-4.88-1.03-3.53-1.52-9.01-1.22-10.63.29-1.62 1.78-2.57 5.75-2.57s7.84.05 12.84.34c5 .29 8.82 1.08 10.73 1.96s1.89 2.15 1.57 3.62zm39.18 7.28c-1.03 3.53-3.46 4.29-8.61 4.88-5.15.59-14.33 0-16.55-1.79-1.47-1.18-3.55-6.02-4.51-10.37-.32-1.47-.35-2.72 1.56-3.61s5.73-1.67 10.73-1.96c5-.29 8.87-.34 12.84-.34s5.46.95 5.75 2.57c.31 1.61-.18 7.09-1.21 10.62z" fill="#26120b" stroke-width="none" opacity="1"></path><path id="SvgjsPath12902" d="M138.5 88.49c-.61-.36-1.36-.4-2.06-.5-.71-.08-1.43-.13-2.14-.18-1.43-.08-2.87-.16-4.3-.21-2.87-.05-5.74.03-8.61.15-2.87.14-5.73.33-8.58.65-2.85.3-5.66.88-8.48 1.44-1.4.26-2.84.6-4.3.54-1.46.09-2.91-.26-4.31-.51-2.82-.56-5.63-1.14-8.48-1.43-5.7-.6-11.45-.86-17.19-.79-1.43.05-2.87.12-4.3.21-.72.05-1.43.1-2.14.18-.7.1-1.45.15-2.04.48-.24.19-.26.59-.29.93-.02.35 0 .71.04 1.06a15 15 0 0 0 .36 2.11c.09.34.17.7.37.97.18.26.6.37.78.75.24.72.3 1.42.43 2.14.22 1.42.43 2.84.71 4.25.28 1.4.6 2.82 1.3 4.05.7 1.24 2.01 1.97 3.35 2.39 1.35.43 2.78.64 4.2.8 2.85.28 5.72.36 8.58.22 2.85-.15 5.73-.45 8.44-1.27.68-.21 1.32-.47 1.83-.93.52-.45.96-1 1.36-1.58.79-1.17 1.4-2.47 1.92-3.79.53-1.32.87-2.71 1.36-4.08.12-.34.24-.68.38-1.02.14-.32.26-.71.56-1.01.58-.56 1.25-.85 1.95-1.12l.03-.01h1.58l.03.01c.61.23 1.2.49 1.73.92.26.19.52.54.62.83.13.3.25.59.36.89.44 1.19.79 2.41 1.17 3.59.41 1.17.9 2.33 1.48 3.42.59 1.09 1.27 2.14 2.17 2.94.89.77 2.17 1.04 3.36 1.33 1.21.27 2.45.46 3.69.6 2.48.28 4.99.37 7.49.32 2.5-.08 5.02-.22 7.45-.76 1.21-.28 2.41-.7 3.37-1.46.98-.77 1.48-1.96 1.84-3.15.69-2.4.97-4.91 1.39-7.39.06-.31.11-.62.2-.93.07-.35.39-.54.63-.71.49-.38.54-1.08.69-1.67.12-.61.23-1.23.28-1.86.01-.61.12-1.32-.26-1.81zm.03-.03c.24.24.26.59.3.89.02.32.01.63-.01.95-.04.63-.14 1.25-.26 1.87-.06.31-.13.62-.22.92-.09.3-.22.62-.5.82-.25.18-.54.36-.58.66-.08.3-.13.61-.19.92-.4 2.48-.65 4.98-1.32 7.42-.35 1.2-.85 2.45-1.88 3.27-1 .81-2.24 1.26-3.46 1.55-2.47.58-4.99.75-7.51.86-2.52.09-5.04.03-7.56-.23-1.26-.13-2.51-.3-3.75-.58-.62-.15-1.24-.3-1.84-.51-.6-.2-1.23-.49-1.73-.93-.98-.88-1.68-1.97-2.28-3.09-.59-1.13-1.09-2.29-1.5-3.49-.4-1.21-.73-2.41-1.17-3.58-.11-.29-.22-.58-.34-.86-.12-.3-.25-.46-.49-.66-.45-.36-1.02-.63-1.58-.84l.08.01h-1.5l.08-.01c-.64.24-1.31.55-1.76 1-.22.2-.32.53-.47.86-.13.33-.25.66-.37 1-.48 1.34-.82 2.74-1.37 4.09-.54 1.34-1.15 2.67-1.98 3.88-.41.6-.87 1.18-1.44 1.67-.57.51-1.3.8-1.98 1.01-2.8.83-5.69 1.09-8.56 1.23-2.88.11-5.77.01-8.63-.3-1.43-.17-2.86-.39-4.25-.84-1.36-.44-2.75-1.21-3.48-2.52-.72-1.29-1.02-2.72-1.3-4.13-.27-1.41-.47-2.84-.68-4.26-.11-.7-.19-1.44-.4-2.09-.13-.31-.51-.41-.76-.73-.23-.32-.3-.69-.39-1.03-.16-.7-.28-1.42-.35-2.13-.03-.36-.06-.72-.04-1.09.03-.35.02-.77.35-1.06.68-.38 1.41-.41 2.12-.53.72-.09 1.43-.14 2.15-.19 1.44-.1 2.87-.18 4.31-.24 5.75-.11 11.5.1 17.23.66 2.87.27 5.7.84 8.52 1.37 2.82.65 5.64.66 8.46.01 2.82-.53 5.65-1.09 8.52-1.35 2.86-.29 5.73-.46 8.61-.57 2.87-.1 5.75-.16 8.62-.07 1.44.06 2.87.15 4.3.25.72.05 1.43.11 2.15.2.7.11 1.45.15 2.08.54z" fill="#070201" stroke-width="none" opacity="1"></path><path id="SvgjsPath12903" d="M95.27 94.87c-.37 1.73-.89 3.42-1.49 5.08-.62 1.65-1.29 3.3-2.34 4.77-.53.77-1.43 1.21-2.26 1.48-.85.29-1.72.49-2.6.64-1.75.32-3.52.45-5.29.54-3.54.15-7.1-.09-10.57-.81-.86-.19-1.72-.46-2.51-.87a5.14 5.14 0 0 1-1.97-1.79c-.48-.76-.75-1.63-.97-2.49-.23-.86-.4-1.73-.56-2.6-.31-1.74-.53-3.5-.61-5.28-.01-.88-.11-1.79.24-2.71.38-.92 1.3-1.45 2.16-1.71 1.76-.51 3.58-.44 5.33-.4l5.3.14c1.77.06 3.53.09 5.3.16 1.77.09 3.53.29 5.28.56 1.75.28 3.49.64 5.16 1.25.81.32 1.7.66 2.21 1.43.52.79.38 1.77.19 2.61zm-.05-.02c.18-.84.3-1.8-.22-2.53-.51-.72-1.37-1.06-2.19-1.35-1.67-.54-3.42-.84-5.16-1.07-3.49-.49-7.03-.4-10.55-.52l-5.29-.14c-1.76-.06-3.54-.14-5.19.33-.81.24-1.57.69-1.89 1.43-.31.74-.26 1.66-.26 2.52.05 1.75.23 3.51.5 5.25.14.87.3 1.73.51 2.59.21.85.46 1.7.91 2.44a4.87 4.87 0 0 0 1.88 1.75c.77.42 1.62.66 2.48.84 3.45.7 7 .77 10.51.56 1.76-.09 3.51-.28 5.24-.55.86-.14 1.72-.32 2.55-.59.83-.27 1.62-.6 2.14-1.3 1.06-1.38 1.8-3 2.46-4.63.66-1.62 1.17-3.31 1.57-5.03z" fill="#070201" stroke-width="none" opacity="1"></path><path id="SvgjsPath12904" d="M134.45 102.15c-.24.85-.61 1.68-1.19 2.36-.58.68-1.35 1.18-2.17 1.51-1.66.67-3.43.9-5.18 1.15-3.53.43-7.09.35-10.61-.06-1.75-.25-3.52-.53-5.18-1.24-.41-.18-.82-.41-1.14-.74-.31-.33-.58-.69-.81-1.07-.47-.75-.87-1.55-1.23-2.36-.71-1.62-1.31-3.29-1.81-4.99-.23-.86-.48-1.7-.61-2.59-.06-.44-.06-.92.09-1.36.15-.45.45-.83.81-1.11.74-.57 1.6-.84 2.44-1.12.85-.26 1.72-.47 2.59-.65 1.74-.35 3.5-.58 5.27-.72 3.53-.23 7.06-.26 10.6-.36l2.65-.07c.88-.03 1.78-.03 2.67.07.89.1 1.79.26 2.63.67.41.21.8.5 1.08.88s.44.85.49 1.3c.14 1.8-.09 3.56-.32 5.31-.27 1.75-.57 3.49-1.07 5.19zm-.05-.02c.47-1.7.77-3.44.97-5.19.17-1.75.33-3.53.15-5.25-.1-.85-.66-1.55-1.43-1.88-.77-.35-1.63-.49-2.5-.55-1.73-.12-3.51.02-5.27.05l-5.29.14c-1.76.06-3.53.02-5.28.17-1.75.13-3.5.33-5.23.63-.86.16-1.72.34-2.56.58-.83.25-1.69.52-2.37 1.02-.34.25-.6.59-.74.98s-.15.83-.1 1.25c.11.86.35 1.72.57 2.57.46 1.7 1.03 3.37 1.78 4.97.37.8.77 1.58 1.25 2.32.24.37.51.71.81 1.01.3.3.69.49 1.08.66 1.61.64 3.38.87 5.12 1.08 3.49.36 7.03.46 10.53.16 1.75-.19 3.52-.36 5.17-.96.82-.3 1.58-.79 2.16-1.44.55-.66.93-1.47 1.18-2.32z" fill="#070201" stroke-width="none" opacity="1"></path></g></g></g></g></g><rect id="svga-credit-rect" width="200" height="15" x="0" y="185" fill="#ecf0f1" opacity="0.5" style="display: none;"></rect><text id="svga-credit-text" font-family="Avenir Next, Roboto, Helvetica, Arial, sans-serif" font-size="10px" text-anchor="start" font-weight="400" size="10px" anchor="start" weight="400" fill="#333333" x="33.311859130859375" y="182.60824728012085" style="display: none;"><tspan id="SvgjsTspan12632" dy="13" x="33.311859130859375">Created on AvatarMaker.com</tspan></text></g><defs id="SvgjsDefs12579"><linearGradient id="SvgjsLinearGradient12892" x1="80.0429" y1="88.1094" x2="80.0429" y2="107.7139" gradientUnits="userSpaceOnUse" class="svga-on-canvas-glasses-gradient-single-0-null"><stop id="SvgjsStop12893" stop-opacity="1" stop-color="#bfeaf2" offset="0" ></stop><stop id="SvgjsStop12894" stop-opacity="0.649" stop-color="#a1cae3" offset="0.351" ></stop><stop id="SvgjsStop12895" stop-opacity="0" stop-color="#6086c4" offset="1" ></stop></linearGradient><linearGradient id="SvgjsLinearGradient12897" x1="-19.9571" y1="88.1094" x2="-19.9571" y2="107.7139" gradientTransform="matrix(-1 0 0 1 100 0)" gradientUnits="userSpaceOnUse" class="svga-on-canvas-glasses-gradient-single-1-null"><stop id="SvgjsStop12898" stop-opacity="1" stop-color="#bfeaf2" offset="0" ></stop><stop id="SvgjsStop12899" stop-opacity="0.649" stop-color="#a1cae3" offset="0.351" ></stop><stop id="SvgjsStop12900" stop-opacity="0" stop-color="#6086c4" offset="1" ></stop></linearGradient></defs></svg>